<svg width="40" height="41" viewBox="0 0 40 41" fill="none" xmlns="http://www.w3.org/2000/svg">
<rect y="0.495422" width="40" height="40" rx="12" fill="#0068E1"/>
<path d="M24.7232 15.0401C22.8888 15.0401 21.1689 15.5305 19.6875 16.3875C16.6771 18.1289 14.6518 21.3837 14.6518 25.1115V33.6335C14.6518 34.4892 15.3455 35.183 16.2012 35.183H21.3661C20.439 35.183 19.6875 34.4314 19.6875 33.5044V25.5312C19.6875 22.75 21.9421 20.4955 24.7232 20.4955C27.5044 20.4955 29.7589 22.75 29.7589 25.5312V33.5044C29.7589 34.4314 29.0074 35.183 28.0804 35.183H33.2452C34.1009 35.183 34.7946 34.4892 34.7946 33.6335V25.1115C34.7946 19.5492 30.2855 15.0401 24.7232 15.0401Z" fill="white"/>
<path d="M15.0714 5.80795C9.79177 5.80795 5.46096 9.87049 5.03447 15.0401H5V33.5044C5 34.4314 5.75152 35.183 6.67857 35.183H11.7143C10.7872 35.183 10.0357 34.4314 10.0357 33.5044V20.0758H12.6602C13.3028 18.0864 14.5013 16.3468 16.0726 15.0401H10.1053C10.5049 12.6584 12.5762 10.8437 15.0714 10.8437C16.8571 10.8437 18.4257 11.7731 19.3198 13.1746C20.4821 12.7525 21.7365 12.5222 23.0446 12.5222C23.5756 12.5222 24.0977 12.5602 24.6084 12.6335C23.2576 8.66375 19.498 5.80795 15.0714 5.80795Z" fill="white"/>
<path d="M28.5475 9.24544V6.16583H27.5V5.49544H30.302V6.16583H29.2545V9.24544H28.5475Z" fill="white"/>
<path d="M30.8049 5.49544H31.5014L32.6484 7.48042H32.6903L33.8373 5.49544H34.5391V9.24544H33.8373V7.39662L33.8792 6.76813H33.8373L32.8841 8.44935H32.4599L31.5014 6.76813H31.4595L31.5014 7.39662V9.24544H30.8049V5.49544Z" fill="white"/>
</svg>
