<svg width="152" height="45" viewBox="0 0 152 45" fill="none" xmlns="http://www.w3.org/2000/svg">
<rect width="44.4954" height="44.4954" rx="11.1239" fill="#0068E1"/>
<path d="M27.5018 16.1793C25.4612 16.1793 23.548 16.7248 21.9001 17.6781C18.5514 19.6152 16.2985 23.2358 16.2985 27.3826V36.8623C16.2985 37.8142 17.0701 38.5859 18.022 38.5859H23.7673C22.7361 38.5859 21.9001 37.7499 21.9001 36.7187V27.8494C21.9001 24.7557 24.4081 22.2477 27.5018 22.2477C30.5955 22.2477 33.1034 24.7557 33.1034 27.8494V36.7187C33.1034 37.7499 32.2674 38.5859 31.2362 38.5859H36.9815C37.9334 38.5859 38.7051 37.8142 38.7051 36.8623V27.3826C38.7051 21.1952 33.6892 16.1793 27.5018 16.1793Z" fill="white"/>
<path d="M16.7653 5.90958C10.8922 5.90958 6.07471 10.4287 5.6003 16.1793H5.56195V36.7187C5.56195 37.7499 6.39793 38.5859 7.42917 38.5859H13.0308C11.9996 38.5859 11.1636 37.7499 11.1636 36.7187V21.7809H14.083C14.7979 19.5679 16.1311 17.6328 17.8789 16.1793H11.2411C11.6855 13.53 13.9896 11.5112 16.7653 11.5112C18.7516 11.5112 20.4965 12.5451 21.4911 14.1041C22.784 13.6345 24.1794 13.3784 25.6346 13.3784C26.2252 13.3784 26.8059 13.4206 27.374 13.5022C25.8715 9.08632 21.6894 5.90958 16.7653 5.90958Z" fill="white"/>
<path d="M31.7558 9.7334V6.30768H30.5906V5.56195H33.7075V6.30768H32.5423V9.7334H31.7558Z" fill="white"/>
<path d="M34.2669 5.56195H35.0417L36.3176 7.77002H36.3642L37.6401 5.56195H38.4208V9.7334H37.6401V7.6768L37.6867 6.97768H37.6401L36.5798 8.84784H36.1079L35.0417 6.97768H34.9951L35.0417 7.6768V9.7334H34.2669V5.56195Z" fill="white"/>
<path d="M60.4661 4.8667C56.4674 4.8667 53.1873 7.94363 52.8644 11.859H52.8383V25.9735C52.8383 26.6036 53.3491 27.1144 53.9792 27.1144H57.7931C57.163 27.1144 56.6522 26.6036 56.6522 25.9735V15.6729H58.6399C59.1266 14.1662 60.0343 12.8487 61.2243 11.859H56.7049C57.0075 10.0551 58.5763 8.68059 60.4661 8.68059C61.8185 8.68059 63.0065 9.38451 63.6837 10.446C64.564 10.1262 65.514 9.95189 66.5048 9.95189C66.9069 9.95189 67.3023 9.98061 67.6891 10.0361C66.6661 7.02959 63.8187 4.8667 60.4661 4.8667Z" fill="#151415"/>
<path d="M71.2396 25.1432C71.2396 25.0825 71.1904 25.0334 71.1298 25.0334C71.0955 25.0334 71.0632 25.0495 71.0421 25.0766C70.6452 25.5891 70.136 26.0585 69.5145 26.4846C68.8756 26.9045 68.0633 27.1144 67.0775 27.1144C66.3656 27.1144 65.6993 26.9958 65.0787 26.7584C64.458 26.5394 63.9195 26.2291 63.4631 25.8275C63.0068 25.4076 62.6417 24.9239 62.3679 24.3762C62.1123 23.8103 61.9845 23.1897 61.9845 22.5143C61.9845 21.8023 62.1214 21.1634 62.3953 20.5975C62.6873 20.0316 63.0798 19.557 63.5727 19.1737C64.0838 18.7903 64.6862 18.4983 65.3799 18.2975C66.0735 18.0784 66.822 17.9689 67.6252 17.9689C68.5197 17.9689 69.2681 18.0602 69.8705 18.2427C70.2133 18.3362 70.5089 18.4267 70.7571 18.5143C70.9853 18.5949 71.2396 18.43 71.2396 18.1879C71.2396 17.7863 71.1483 17.4121 70.9658 17.0653C70.8015 16.7185 70.5642 16.4264 70.2538 16.1891C69.9618 15.9335 69.6241 15.7418 69.2407 15.6141C68.8574 15.468 68.4558 15.395 68.0359 15.395C67.3605 15.395 66.749 15.5319 66.2013 15.8057C65.8112 15.994 65.4509 16.2716 65.1203 16.6383C64.9154 16.8656 64.5756 16.9322 64.3201 16.7638L62.8673 15.8063C62.5954 15.6271 62.5265 15.255 62.7412 15.0101C63.3081 14.3636 63.9777 13.8621 64.7501 13.5057C65.6993 13.0493 66.7763 12.8211 67.9811 12.8211C69.9709 12.8211 71.5043 13.314 72.5813 14.2997C73.6766 15.2855 74.2242 16.6911 74.2242 18.5165V26.1058C74.2242 26.4209 73.9688 26.6763 73.6537 26.6763H71.81C71.495 26.6763 71.2396 26.4209 71.2396 26.1058V25.1432ZM71.2235 21.4154C71.2436 21.2147 71.134 21.0254 70.9544 20.9335C70.6293 20.7671 70.2771 20.6278 69.8979 20.5154C69.405 20.3694 68.8391 20.2963 68.2002 20.2963C67.251 20.2963 66.4934 20.5154 65.9275 20.9535C65.3616 21.3916 65.0787 21.921 65.0787 22.5416C65.0787 22.8702 65.1517 23.1623 65.2977 23.4179C65.4438 23.6552 65.6263 23.8651 65.8454 24.0476C66.0827 24.2302 66.3474 24.3671 66.6394 24.4584C66.9498 24.5496 67.2601 24.5953 67.5704 24.5953C68.0633 24.5953 68.5288 24.504 68.9669 24.3215C69.4233 24.1207 69.8157 23.8651 70.1443 23.5548C70.4729 23.2262 70.7376 22.852 70.9384 22.4321C71.0927 22.1094 71.1877 21.7705 71.2235 21.4154Z" fill="#151415"/>
<path d="M77.0839 13.8297C77.0839 13.5146 77.3393 13.2592 77.6543 13.2592H79.3885C79.7036 13.2592 79.959 13.5146 79.959 13.8297V15.1849C79.959 15.2404 80.004 15.2855 80.0596 15.2855C80.0985 15.2855 80.1338 15.263 80.151 15.2282C80.3119 14.9034 80.5217 14.603 80.7804 14.3271C81.0725 14.0168 81.3919 13.7612 81.7388 13.5604C82.1039 13.3414 82.4781 13.1771 82.8614 13.0675C83.263 12.9398 83.6464 12.8759 84.0115 12.8759C84.4496 12.8759 84.8238 12.9124 85.1341 12.9854C85.2736 13.0182 85.4075 13.0566 85.536 13.1004C85.8004 13.1908 85.9221 13.4825 85.8392 13.7494L85.2987 15.4892C85.1968 15.8171 84.8266 15.981 84.4878 15.9253C84.4662 15.9218 84.4443 15.9184 84.4222 15.9153C84.1849 15.8605 83.8928 15.8331 83.546 15.8331C83.0531 15.8331 82.5967 15.9335 82.1769 16.1343C81.7753 16.3351 81.4193 16.6089 81.109 16.9558C80.7987 17.3026 80.5522 17.7133 80.3697 18.1879C80.2054 18.6626 80.1233 19.1646 80.1233 19.6939V26.1058C80.1233 26.4209 79.8679 26.6763 79.5528 26.6763H77.6543C77.3393 26.6763 77.0839 26.4209 77.0839 26.1058V13.8297Z" fill="#151415"/>
<path d="M98.6904 23.2097C98.9805 23.3532 99.095 23.7107 98.9173 23.9812C98.38 24.7989 97.6784 25.4965 96.8122 26.0739C95.7717 26.7676 94.4939 27.1144 92.9788 27.1144C91.9748 27.1144 91.0438 26.941 90.1859 26.5942C89.3461 26.2291 88.616 25.7271 87.9953 25.0882C87.3747 24.4492 86.8909 23.7008 86.5441 22.8428C86.1972 21.9666 86.0238 21.0083 86.0238 19.9678C86.0238 19.0003 86.1881 18.0875 86.5167 17.2296C86.8453 16.3534 87.3016 15.5958 87.8858 14.9569C88.4882 14.2997 89.2092 13.7795 90.0489 13.3961C90.8886 13.0128 91.8196 12.8211 92.8419 12.8211C93.8824 12.8211 94.8042 12.9945 95.6074 13.3414C96.4289 13.6882 97.1226 14.1719 97.6885 14.7926C98.2544 15.4133 98.6833 16.1617 98.9754 17.0379C99.2857 17.9141 99.4409 18.8725 99.4409 19.913C99.4409 19.9814 99.4409 20.0448 99.4409 20.1029C99.4409 20.1405 99.4369 20.1779 99.4307 20.215C99.4208 20.2748 99.4152 20.3303 99.4138 20.3816C99.4134 20.3977 99.4113 20.4142 99.4078 20.4299C99.3842 20.5361 99.2979 20.6249 99.1891 20.6249H89.6846C89.3504 20.6249 89.0837 20.9124 89.1521 21.2396C89.2332 21.6278 89.3588 21.9797 89.5287 22.2952C89.7843 22.7698 90.0946 23.1623 90.4597 23.4726C90.843 23.783 91.2629 24.0111 91.7192 24.1572C92.1756 24.3032 92.6228 24.3762 93.0609 24.3762C93.9372 24.3762 94.6582 24.1663 95.2241 23.7464C95.6495 23.4308 96.0181 23.0585 96.33 22.6295C96.5059 22.3876 96.8281 22.2884 97.0962 22.421L98.6904 23.2097ZM95.75 18.2975C96.095 18.2975 96.358 17.9917 96.2391 17.6678C96.2064 17.5787 96.1693 17.4874 96.1277 17.3939C95.9999 17.047 95.79 16.7367 95.4979 16.4629C95.2241 16.1708 94.859 15.9244 94.4026 15.7236C93.9645 15.5228 93.426 15.4224 92.7871 15.4224C91.9109 15.4224 91.1533 15.6871 90.5144 16.2165C90.0674 16.5846 89.7245 17.0475 89.4858 17.6051C89.3397 17.9463 89.6144 18.2975 89.9855 18.2975H95.75Z" fill="#151415"/>
<path d="M123.25 12.8211C124.272 12.8211 125.212 13.0037 126.07 13.3687C126.928 13.7156 127.667 14.2085 128.288 14.8474C128.909 15.4863 129.392 16.2438 129.739 17.1201C130.086 17.9963 130.26 18.9455 130.26 19.9678C130.26 20.99 130.086 21.9392 129.739 22.8155C129.392 23.6917 128.909 24.4492 128.288 25.0882C127.667 25.7271 126.928 26.2291 126.07 26.5942C125.212 26.941 124.272 27.1144 123.25 27.1144C122.228 27.1144 121.287 26.941 120.429 26.5942C119.572 26.2291 118.832 25.7271 118.212 25.0882C117.591 24.4492 117.107 23.6917 116.76 22.8155C116.413 21.9392 116.24 20.99 116.24 19.9678C116.24 18.9455 116.413 17.9963 116.76 17.1201C117.107 16.2438 117.591 15.4863 118.212 14.8474C118.832 14.2085 119.572 13.7156 120.429 13.3687C121.287 13.0037 122.228 12.8211 123.25 12.8211ZM123.25 24.2941C123.761 24.2941 124.254 24.1937 124.728 23.9929C125.203 23.7921 125.623 23.5091 125.988 23.144C126.371 22.779 126.673 22.3317 126.892 21.8023C127.111 21.2547 127.22 20.6432 127.22 19.9678C127.22 19.2923 127.111 18.6899 126.892 18.1606C126.673 17.6129 126.371 17.1566 125.988 16.7915C125.623 16.4264 125.203 16.1434 124.728 15.9426C124.254 15.7418 123.761 15.6414 123.25 15.6414C122.739 15.6414 122.246 15.7418 121.771 15.9426C121.297 16.1434 120.868 16.4264 120.484 16.7915C120.119 17.1566 119.827 17.6129 119.608 18.1606C119.389 18.6899 119.279 19.2923 119.279 19.9678C119.279 20.6432 119.389 21.2547 119.608 21.8023C119.827 22.3317 120.119 22.779 120.484 23.144C120.868 23.5091 121.297 23.7921 121.771 23.9929C122.246 24.1937 122.739 24.2941 123.25 24.2941Z" fill="#151415"/>
<path d="M131.117 14.0037C130.999 13.6356 131.273 13.2592 131.66 13.2592H133.759C134.015 13.2592 134.239 13.4295 134.308 13.6757L136.778 22.4878C136.786 22.5196 136.816 22.5416 136.849 22.5416C136.881 22.5416 136.909 22.5211 136.919 22.4907L139.786 13.6536C139.863 13.4185 140.082 13.2592 140.329 13.2592H142.647C142.895 13.2592 143.115 13.4192 143.19 13.6551L146.031 22.4906C146.041 22.521 146.069 22.5416 146.101 22.5416C146.134 22.5416 146.163 22.5196 146.172 22.4878L148.615 13.6772C148.684 13.4302 148.909 13.2592 149.165 13.2592H151.208C151.594 13.2592 151.869 13.6356 151.751 14.0037L147.818 26.2799C147.742 26.5161 147.522 26.6763 147.274 26.6763H144.902C144.655 26.6763 144.435 26.5169 144.359 26.2815L141.464 17.3362C141.454 17.3053 141.426 17.2843 141.393 17.2843C141.36 17.2843 141.331 17.3056 141.322 17.3368L138.506 26.2772C138.432 26.5147 138.211 26.6763 137.962 26.6763H135.593C135.345 26.6763 135.126 26.5161 135.05 26.2799L131.117 14.0037Z" fill="#151415"/>
<path d="M101.612 19.274V26.544H104.75V19.6985C104.75 17.9657 106.154 16.561 107.887 16.561C109.62 16.561 111.025 17.9657 111.025 19.6985V26.544H114.162V19.1281C114.162 15.6625 111.353 12.8531 107.887 12.8531C106.774 12.8531 105.729 13.1428 104.823 13.651V13.7121C102.903 14.8223 101.612 16.8973 101.612 19.274Z" fill="#151415"/>
<path d="M56.5155 38.6798C55.4677 38.6798 54.5912 38.3272 53.8861 37.6221C53.1876 36.917 52.8383 36.0372 52.8383 34.9828C52.8383 33.9284 53.1876 33.052 53.8861 32.3534C54.5847 31.6417 55.4611 31.2859 56.5155 31.2859C57.5831 31.2859 58.4497 31.6714 59.1153 32.4424L58.4628 33.075C57.9554 32.4622 57.3063 32.1557 56.5155 32.1557C55.7313 32.1557 55.0756 32.4193 54.5484 32.9465C54.0278 33.4671 53.7675 34.1459 53.7675 34.9828C53.7675 35.8198 54.0278 36.4985 54.5484 37.0191C55.0756 37.5463 55.7313 37.8099 56.5155 37.8099C57.3393 37.8099 58.0543 37.4639 58.6605 36.772L59.3228 37.4145C58.9868 37.8165 58.5749 38.1295 58.0872 38.3536C57.5996 38.5711 57.0757 38.6798 56.5155 38.6798Z" fill="#555555"/>
<path d="M59.7576 36.0998C59.7576 35.3552 59.9916 34.739 60.4595 34.2513C60.9339 33.7637 61.5303 33.5199 62.2486 33.5199C62.9669 33.5199 63.56 33.7637 64.0279 34.2513C64.5024 34.739 64.7396 35.3552 64.7396 36.0998C64.7396 36.8511 64.5024 37.4672 64.0279 37.9483C63.56 38.436 62.9669 38.6798 62.2486 38.6798C61.5303 38.6798 60.9339 38.436 60.4595 37.9483C59.9916 37.4607 59.7576 36.8445 59.7576 36.0998ZM60.667 36.0998C60.667 36.6204 60.8186 37.0422 61.1217 37.3651C61.4249 37.688 61.8005 37.8495 62.2486 37.8495C62.6967 37.8495 63.0724 37.688 63.3755 37.3651C63.6786 37.0422 63.8302 36.6204 63.8302 36.0998C63.8302 35.5858 63.6786 35.1673 63.3755 34.8444C63.0658 34.5149 62.6902 34.3502 62.2486 34.3502C61.8071 34.3502 61.4315 34.5149 61.1217 34.8444C60.8186 35.1673 60.667 35.5858 60.667 36.0998Z" fill="#555555"/>
<path d="M65.4692 33.678H66.3391V34.3502H66.3786C66.517 34.113 66.7279 33.9153 67.0112 33.7571C67.3012 33.5989 67.601 33.5199 67.9108 33.5199C68.5039 33.5199 68.9586 33.6912 69.2749 34.0339C69.5978 34.37 69.7592 34.851 69.7592 35.4771V38.5216H68.8498V35.5364C68.8301 34.7456 68.4314 34.3502 67.6538 34.3502C67.2913 34.3502 66.9882 34.4985 66.7443 34.795C66.5005 35.085 66.3786 35.4342 66.3786 35.8428V38.5216H65.4692V33.678Z" fill="#555555"/>
<path d="M70.8267 33.678H71.6966V34.3502H71.7362C71.8745 34.113 72.0854 33.9153 72.3688 33.7571C72.6588 33.5989 72.9586 33.5199 73.2683 33.5199C73.8614 33.5199 74.3161 33.6912 74.6324 34.0339C74.9554 34.37 75.1168 34.851 75.1168 35.4771V38.5216H74.2074V35.5364C74.1876 34.7456 73.7889 34.3502 73.0113 34.3502C72.6489 34.3502 72.3457 34.4985 72.1019 34.795C71.8581 35.085 71.7362 35.4342 71.7362 35.8428V38.5216H70.8267V33.678Z" fill="#555555"/>
<path d="M78.359 38.6798C77.6473 38.6798 77.0608 38.436 76.5995 37.9483C76.1382 37.4607 75.9075 36.8445 75.9075 36.0998C75.9075 35.3617 76.1316 34.7489 76.5797 34.2612C77.0278 33.767 77.6011 33.5199 78.2997 33.5199C79.018 33.5199 79.588 33.7538 80.0098 34.2217C80.4381 34.683 80.6523 35.3321 80.6523 36.169L80.6424 36.2679H76.8367C76.8499 36.7423 77.008 37.1246 77.3112 37.4145C77.6143 37.7045 77.9768 37.8495 78.3985 37.8495C78.9784 37.8495 79.4332 37.5595 79.7627 36.9796L80.5732 37.375C80.3557 37.7836 80.0526 38.1032 79.6638 38.3338C79.2816 38.5645 78.8466 38.6798 78.359 38.6798ZM76.9059 35.5166H79.6836C79.6572 35.1805 79.5188 34.9037 79.2684 34.6863C79.0246 34.4622 78.6951 34.3502 78.2799 34.3502C77.9372 34.3502 77.6407 34.4556 77.3903 34.6665C77.1464 34.8774 76.985 35.1608 76.9059 35.5166Z" fill="#555555"/>
<path d="M83.7464 38.6798C83.0281 38.6798 82.4317 38.436 81.9573 37.9483C81.4894 37.4475 81.2554 36.8313 81.2554 36.0998C81.2554 35.3552 81.4894 34.739 81.9573 34.2513C82.4317 33.7637 83.0281 33.5199 83.7464 33.5199C84.2407 33.5199 84.6723 33.6451 85.0414 33.8955C85.4104 34.1393 85.6872 34.4787 85.8717 34.9136L85.0414 35.2596C84.7844 34.6533 84.3329 34.3502 83.6871 34.3502C83.272 34.3502 82.9128 34.5182 82.6097 34.8543C82.3131 35.1904 82.1648 35.6056 82.1648 36.0998C82.1648 36.5941 82.3131 37.0092 82.6097 37.3453C82.9128 37.6814 83.272 37.8495 83.6871 37.8495C84.3527 37.8495 84.8206 37.5463 85.0908 36.94L85.9014 37.286C85.7234 37.721 85.4434 38.0636 85.0611 38.3141C84.6855 38.5579 84.2473 38.6798 83.7464 38.6798Z" fill="#555555"/>
<path d="M88.5661 38.6007C88.1707 38.6007 87.8412 38.4788 87.5776 38.235C87.3206 37.9911 87.1888 37.6518 87.1822 37.2168V34.5083H86.3321V33.678H87.1822V32.1953H88.0916V33.678H89.2778V34.5083H88.0916V36.9203C88.0916 37.2432 88.1542 37.4639 88.2795 37.5826C88.4047 37.6946 88.5463 37.7506 88.7045 37.7506C88.777 37.7506 88.8462 37.744 88.9121 37.7308C88.9846 37.7111 89.0505 37.688 89.1098 37.6616L89.3965 38.4722C89.1592 38.5579 88.8824 38.6007 88.5661 38.6007Z" fill="#555555"/>
<path d="M90.4494 39.6287L90.0243 39.352L90.5581 38.5216C90.4197 38.4953 90.3011 38.4261 90.2022 38.3141C90.11 38.202 90.0638 38.0669 90.0638 37.9088C90.0638 37.7177 90.1297 37.5595 90.2615 37.4343C90.3933 37.3025 90.5515 37.2366 90.736 37.2366C90.9271 37.2366 91.0853 37.3025 91.2105 37.4343C91.3423 37.5595 91.4082 37.7177 91.4082 37.9088C91.4082 38.0867 91.3423 38.2811 91.2105 38.492L90.4494 39.6287Z" fill="#555555"/>
<path d="M101.473 33.678L99.9107 38.5216H98.9815L97.7756 34.8049L96.5795 38.5216H95.6602L94.0984 33.678H95.0473L96.1248 37.3354H96.1347L97.3307 33.678H98.2698L99.4659 37.3354H99.4758L100.543 33.678H101.473Z" fill="#555555"/>
<path d="M101.691 36.0998C101.691 35.3552 101.925 34.739 102.393 34.2513C102.868 33.7637 103.464 33.5199 104.182 33.5199C104.901 33.5199 105.494 33.7637 105.962 34.2513C106.436 34.739 106.673 35.3552 106.673 36.0998C106.673 36.8511 106.436 37.4672 105.962 37.9483C105.494 38.436 104.901 38.6798 104.182 38.6798C103.464 38.6798 102.868 38.436 102.393 37.9483C101.925 37.4607 101.691 36.8445 101.691 36.0998ZM102.601 36.0998C102.601 36.6204 102.752 37.0422 103.056 37.3651C103.359 37.688 103.734 37.8495 104.182 37.8495C104.631 37.8495 105.006 37.688 105.309 37.3651C105.612 37.0422 105.764 36.6204 105.764 36.0998C105.764 35.5858 105.612 35.1673 105.309 34.8444C105 34.5149 104.624 34.3502 104.182 34.3502C103.741 34.3502 103.365 34.5149 103.056 34.8444C102.752 35.1673 102.601 35.5858 102.601 36.0998Z" fill="#555555"/>
<path d="M108.312 38.5216H107.403V33.678H108.273V34.4688H108.312C108.405 34.2118 108.592 33.9943 108.876 33.8164C109.166 33.6319 109.449 33.5396 109.726 33.5396C109.99 33.5396 110.214 33.5792 110.398 33.6582L110.121 34.538C110.009 34.4919 109.831 34.4688 109.588 34.4688C109.245 34.4688 108.945 34.6072 108.688 34.884C108.438 35.1608 108.312 35.4837 108.312 35.8527V38.5216Z" fill="#555555"/>
<path d="M115.303 38.5216H114.205L112.693 36.2382L111.952 36.9697V38.5216H111.042V31.444H111.952V35.8033L114.047 33.678H115.214V33.7176L113.326 35.5957L115.303 38.4821V38.5216Z" fill="#555555"/>
<path d="M118.655 37.0389C118.655 37.2761 118.754 37.4738 118.951 37.632C119.156 37.7902 119.393 37.8692 119.663 37.8692C120.045 37.8692 120.385 37.7275 120.681 37.4442C120.984 37.1608 121.136 36.828 121.136 36.4458C120.853 36.2217 120.457 36.1097 119.95 36.1097C119.581 36.1097 119.271 36.1987 119.021 36.3766C118.777 36.5545 118.655 36.7753 118.655 37.0389ZM119.831 33.5199C120.503 33.5199 121.034 33.7011 121.423 34.0635C121.811 34.4194 122.006 34.9103 122.006 35.5364V38.5216H121.136V37.8495H121.096C120.721 38.403 120.22 38.6798 119.594 38.6798C119.06 38.6798 118.612 38.5216 118.25 38.2053C117.894 37.889 117.716 37.4936 117.716 37.0191C117.716 36.5183 117.904 36.1196 118.279 35.823C118.661 35.5265 119.169 35.3782 119.802 35.3782C120.342 35.3782 120.787 35.4771 121.136 35.6748V35.4672C121.136 35.1509 121.011 34.884 120.76 34.6665C120.51 34.4424 120.217 34.3304 119.881 34.3304C119.373 34.3304 118.971 34.5446 118.675 34.9729L117.874 34.4688C118.315 33.8362 118.968 33.5199 119.831 33.5199Z" fill="#555555"/>
<path d="M123.032 33.678H123.901V34.3502H123.941C124.079 34.113 124.29 33.9153 124.574 33.7571C124.864 33.5989 125.163 33.5199 125.473 33.5199C126.066 33.5199 126.521 33.6912 126.837 34.0339C127.16 34.37 127.322 34.851 127.322 35.4771V38.5216H126.412V35.5364C126.392 34.7456 125.994 34.3502 125.216 34.3502C124.854 34.3502 124.551 34.4985 124.307 34.795C124.063 35.085 123.941 35.4342 123.941 35.8428V38.5216H123.032V33.678Z" fill="#555555"/>
<path d="M130.564 37.8495C131.012 37.8495 131.378 37.688 131.661 37.3651C131.958 37.0422 132.106 36.6204 132.106 36.0998C132.106 35.5924 131.958 35.1739 131.661 34.8444C131.371 34.5149 131.005 34.3502 130.564 34.3502C130.129 34.3502 129.763 34.5149 129.467 34.8444C129.17 35.1739 129.022 35.5924 129.022 36.0998C129.022 36.6138 129.17 37.0323 129.467 37.3552C129.763 37.6847 130.129 37.8495 130.564 37.8495ZM130.416 38.6798C129.783 38.6798 129.239 38.4294 128.785 37.9285C128.336 37.4211 128.112 36.8115 128.112 36.0998C128.112 35.3881 128.336 34.7785 128.785 34.2711C129.239 33.7703 129.783 33.5199 130.416 33.5199C130.771 33.5199 131.094 33.5956 131.384 33.7472C131.681 33.8988 131.908 34.0998 132.066 34.3502H132.106L132.066 33.678V31.444H132.976V38.5216H132.106V37.8495H132.066C131.908 38.0999 131.681 38.3009 131.384 38.4524C131.094 38.604 130.771 38.6798 130.416 38.6798Z" fill="#555555"/>
<path d="M137.166 31.444V38.5216H136.257V31.444H137.166Z" fill="#555555"/>
<path d="M139.45 32.0075C139.45 32.1854 139.388 32.337 139.263 32.4622C139.137 32.5874 138.986 32.65 138.808 32.65C138.63 32.65 138.478 32.5874 138.353 32.4622C138.228 32.337 138.165 32.1854 138.165 32.0075C138.165 31.8295 138.228 31.678 138.353 31.5528C138.478 31.4275 138.63 31.3649 138.808 31.3649C138.986 31.3649 139.137 31.4275 139.263 31.5528C139.388 31.678 139.45 31.8295 139.45 32.0075ZM139.263 33.678V38.5216H138.353V33.678H139.263Z" fill="#555555"/>
<path d="M142.799 38.5216H141.889L139.932 33.678H140.921L142.344 37.4343H142.364L143.807 33.678H144.776L142.799 38.5216Z" fill="#555555"/>
<path d="M147.399 38.6798C146.687 38.6798 146.101 38.436 145.64 37.9483C145.178 37.4607 144.948 36.8445 144.948 36.0998C144.948 35.3617 145.172 34.7489 145.62 34.2612C146.068 33.767 146.641 33.5199 147.34 33.5199C148.058 33.5199 148.628 33.7538 149.05 34.2217C149.478 34.683 149.692 35.3321 149.692 36.169L149.683 36.2679H145.877C145.89 36.7423 146.048 37.1246 146.351 37.4145C146.654 37.7045 147.017 37.8495 147.439 37.8495C148.019 37.8495 148.473 37.5595 148.803 36.9796L149.613 37.375C149.396 37.7836 149.093 38.1032 148.704 38.3338C148.322 38.5645 147.887 38.6798 147.399 38.6798ZM145.946 35.5166H148.724C148.697 35.1805 148.559 34.9037 148.309 34.6863C148.065 34.4622 147.735 34.3502 147.32 34.3502C146.977 34.3502 146.681 34.4556 146.43 34.6665C146.187 34.8774 146.025 35.1608 145.946 35.5166Z" fill="#555555"/>
</svg>
